<?xml version="1.0" standalone="no"?><!-- Generator: Gravit.io --><svg xmlns="http://www.w3.org/2000/svg" xmlns:xlink="http://www.w3.org/1999/xlink" style="isolation:isolate" viewBox="-1.5 62 543 374.5" width="543" height="374.5"><rect x="0" y="118" width="540" height="317" transform="matrix(1,0,0,1,0,0)" fill="rgb(255,255,255)" vector-effect="non-scaling-stroke" stroke-width="1" stroke="rgb(0,0,0)" stroke-linejoin="miter" stroke-linecap="square" stroke-miterlimit="3"/><g id="left"><g id="Group"><path d="M 31 328.5 L 58 328.5 C 59.104 328.5 60 329.396 60 330.5 L 60 350.5 C 60 351.604 59.104 352.5 58 352.5 L 31 352.5 C 29.896 352.5 29 351.604 29 350.5 L 29 330.5 C 29 329.396 29.896 328.5 31 328.5 Z" style="fill:none;stroke:#000000;stroke-width:1;stroke-linecap:square;stroke-miterlimit:3;"/><path d="M 31 359.5 L 58 359.5 C 59.104 359.5 60 360.396 60 361.5 L 60 381.5 C 60 382.604 59.104 383.5 58 383.5 L 31 383.5 C 29.896 383.5 29 382.604 29 381.5 L 29 361.5 C 29 360.396 29.896 359.5 31 359.5 Z" style="fill:none;stroke:#000000;stroke-width:1;stroke-linecap:square;stroke-miterlimit:3;"/><path d="M 31 400.5 L 58 400.5 C 59.104 400.5 60 401.396 60 402.5 L 60 422.5 C 60 423.604 59.104 424.5 58 424.5 L 31 424.5 C 29.896 424.5 29 423.604 29 422.5 L 29 402.5 C 29 401.396 29.896 400.5 31 400.5 Z" style="fill:none;stroke:#000000;stroke-width:1;stroke-linecap:square;stroke-miterlimit:3;"/><path d="M 72 328.5 L 99 328.5 C 100.104 328.5 101 329.396 101 330.5 L 101 350.5 C 101 351.604 100.104 352.5 99 352.5 L 72 352.5 C 70.896 352.5 70 351.604 70 350.5 L 70 330.5 C 70 329.396 70.896 328.5 72 328.5 Z" style="fill:none;stroke:#000000;stroke-width:1;stroke-linecap:square;stroke-miterlimit:3;"/><path d="M 110 328.5 L 137 328.5 C 138.104 328.5 139 329.396 139 330.5 L 139 338.5 C 139 339.604 138.104 340.5 137 340.5 L 110 340.5 C 108.896 340.5 108 339.604 108 338.5 L 108 330.5 C 108 329.396 108.896 328.5 110 328.5 Z" style="fill:none;stroke:#000000;stroke-width:1;stroke-linecap:square;stroke-miterlimit:3;"/><path d="M 72 359.5 L 99 359.5 C 100.104 359.5 101 360.396 101 361.5 L 101 381.5 C 101 382.604 100.104 383.5 99 383.5 L 72 383.5 C 70.896 383.5 70 382.604 70 381.5 L 70 361.5 C 70 360.396 70.896 359.5 72 359.5 Z" style="fill:none;stroke:#000000;stroke-width:1;stroke-linecap:square;stroke-miterlimit:3;"/><path d="M 72 400.5 L 99 400.5 C 100.104 400.5 101 401.396 101 402.5 L 101 422.5 C 101 423.604 100.104 424.5 99 424.5 L 72 424.5 C 70.896 424.5 70 423.604 70 422.5 L 70 402.5 C 70 401.396 70.896 400.5 72 400.5 Z" style="fill:none;stroke:#000000;stroke-width:1;stroke-linecap:square;stroke-miterlimit:3;"/><path d="M 113 400.5 L 140 400.5 C 141.104 400.5 142 401.396 142 402.5 L 142 422.5 C 142 423.604 141.104 424.5 140 424.5 L 113 424.5 C 111.896 424.5 111 423.604 111 422.5 L 111 402.5 C 111 401.396 111.896 400.5 113 400.5 Z" style="fill:none;stroke:#000000;stroke-width:1;stroke-linecap:square;stroke-miterlimit:3;"/><path d="M 166 334.5 L 168 334.5 C 169.104 334.5 170 335.396 170 336.5 L 170 417.5 C 170 418.604 169.104 419.5 168 419.5 L 166 419.5 C 164.896 419.5 164 418.604 164 417.5 L 164 336.5 C 164 335.396 164.896 334.5 166 334.5 Z" style="fill:none;stroke:#000000;stroke-width:1;stroke-linecap:square;stroke-miterlimit:3;"/><path d="M 156 367.5 L 178 367.5 C 179.104 367.5 180 368.396 180 369.5 L 180 385.5 C 180 386.604 179.104 387.5 178 387.5 L 156 387.5 C 154.896 387.5 154 386.604 154 385.5 L 154 369.5 C 154 368.396 154.896 367.5 156 367.5 Z" style="stroke:none;fill:#EBEBEB;stroke-linecap:square;stroke-miterlimit:3;"/><path d="M 156 367.5 L 178 367.5 C 179.104 367.5 180 368.396 180 369.5 L 180 385.5 C 180 386.604 179.104 387.5 178 387.5 L 156 387.5 C 154.896 387.5 154 386.604 154 385.5 L 154 369.5 C 154 368.396 154.896 367.5 156 367.5 Z" style="fill:none;stroke:#000000;stroke-width:1;stroke-linecap:square;stroke-miterlimit:3;"/><path d=" M 22 227 C 22 185.33 55.83 151.5 97.5 151.5 C 139.17 151.5 173 185.33 173 227 C 173 268.67 139.17 302.5 97.5 302.5 C 55.83 302.5 22 268.67 22 227 Z " fill="rgb(235,235,235)" vector-effect="non-scaling-stroke" stroke-width="1" stroke="rgb(0,0,0)" stroke-linejoin="miter" stroke-linecap="square" stroke-miterlimit="3"/><g id="Group"><rect x="219" y="306.5" width="6" height="85" transform="matrix(1,0,0,1,0,0)" fill="none" vector-effect="non-scaling-stroke" stroke-width="1" stroke="rgb(0,0,0)" stroke-linejoin="miter" stroke-linecap="square" stroke-miterlimit="3"/><rect x="206" y="339.5" width="34" height="20" transform="matrix(1,0,0,1,0,0)" fill="rgb(235,235,235)" vector-effect="non-scaling-stroke" stroke-width="1" stroke="rgb(0,0,0)" stroke-linejoin="miter" stroke-linecap="square" stroke-miterlimit="3"/></g><g id="Group"><path d=" M 214 153.5 C 214 148.533 218.033 144.5 223 144.5 C 227.967 144.5 232 148.533 232 153.5 C 232 158.467 227.967 162.5 223 162.5 C 218.033 162.5 214 158.467 214 153.5 Z " fill="none" vector-effect="non-scaling-stroke" stroke-width="1" stroke="rgb(0,0,0)" stroke-linejoin="miter" stroke-linecap="square" stroke-miterlimit="3"/><line x1="223" y1="153.5" x2="223" y2="144.5" vector-effect="non-scaling-stroke" stroke-width="1" stroke="rgb(0,0,0)" stroke-linejoin="miter" stroke-linecap="square" stroke-miterlimit="3"/></g><g id="Group"><path d=" M 214 194.833 C 214 189.866 218.033 185.833 223 185.833 C 227.967 185.833 232 189.866 232 194.833 C 232 199.801 227.967 203.833 223 203.833 C 218.033 203.833 214 199.801 214 194.833 Z " fill="none" vector-effect="non-scaling-stroke" stroke-width="1" stroke="rgb(0,0,0)" stroke-linejoin="miter" stroke-linecap="square" stroke-miterlimit="3"/><line x1="223" y1="194.833" x2="223" y2="185.833" vector-effect="non-scaling-stroke" stroke-width="1" stroke="rgb(0,0,0)" stroke-linejoin="miter" stroke-linecap="square" stroke-miterlimit="3"/></g><g id="Group"><path d=" M 214 236.167 C 214 231.199 218.033 227.167 223 227.167 C 227.967 227.167 232 231.199 232 236.167 C 232 241.134 227.967 245.167 223 245.167 C 218.033 245.167 214 241.134 214 236.167 Z " fill="none" vector-effect="non-scaling-stroke" stroke-width="1" stroke="rgb(0,0,0)" stroke-linejoin="miter" stroke-linecap="square" stroke-miterlimit="3"/><line x1="223" y1="236.167" x2="223" y2="227.167" vector-effect="non-scaling-stroke" stroke-width="1" stroke="rgb(0,0,0)" stroke-linejoin="miter" stroke-linecap="square" stroke-miterlimit="3"/></g><g id="Group"><path d=" M 214 277.5 C 214 272.533 218.033 268.5 223 268.5 C 227.967 268.5 232 272.533 232 277.5 C 232 282.467 227.967 286.5 223 286.5 C 218.033 286.5 214 282.467 214 277.5 Z " fill="none" vector-effect="non-scaling-stroke" stroke-width="1" stroke="rgb(0,0,0)" stroke-linejoin="miter" stroke-linecap="square" stroke-miterlimit="3"/><line x1="223" y1="277.5" x2="223" y2="268.5" vector-effect="non-scaling-stroke" stroke-width="1" stroke="rgb(0,0,0)" stroke-linejoin="miter" stroke-linecap="square" stroke-miterlimit="3"/></g></g><g id="padmode led"><rect x="127.5" y="345.496" width="12" height="6" transform="matrix(1,0,0,1,0,0)" fill="rgb(162,162,162)"/><rect x="127.5" y="355.496" width="12" height="6" transform="matrix(1,0,0,1,0,0)" fill="rgb(162,162,162)"/><rect x="127.5" y="365.496" width="12" height="6" transform="matrix(1,0,0,1,0,0)" fill="rgb(162,162,162)"/><rect x="127.5" y="375.496" width="12" height="6" transform="matrix(1,0,0,1,0,0)" fill="rgb(162,162,162)"/></g></g><g id="right"><path d="M 440 328.5 L 413 328.5 C 411.896 328.5 411 329.396 411 330.5 L 411 350.5 C 411 351.604 411.896 352.5 413 352.5 L 440 352.5 C 441.104 352.5 442 351.604 442 350.5 L 442 330.5 C 442 329.396 441.104 328.5 440 328.5 Z" style="fill:none;stroke:#000000;stroke-width:1;stroke-linecap:square;stroke-miterlimit:3;"/><path d="M 440 359.5 L 413 359.5 C 411.896 359.5 411 360.396 411 361.5 L 411 381.5 C 411 382.604 411.896 383.5 413 383.5 L 440 383.5 C 441.104 383.5 442 382.604 442 381.5 L 442 361.5 C 442 360.396 441.104 359.5 440 359.5 Z" style="fill:none;stroke:#000000;stroke-width:1;stroke-linecap:square;stroke-miterlimit:3;"/><path d="M 440 400.5 L 413 400.5 C 411.896 400.5 411 401.396 411 402.5 L 411 422.5 C 411 423.604 411.896 424.5 413 424.5 L 440 424.5 C 441.104 424.5 442 423.604 442 422.5 L 442 402.5 C 442 401.396 441.104 400.5 440 400.5 Z" style="fill:none;stroke:#000000;stroke-width:1;stroke-linecap:square;stroke-miterlimit:3;"/><path d="M 399 328.5 L 372 328.5 C 370.896 328.5 370 329.396 370 330.5 L 370 350.5 C 370 351.604 370.896 352.5 372 352.5 L 399 352.5 C 400.104 352.5 401 351.604 401 350.5 L 401 330.5 C 401 329.396 400.104 328.5 399 328.5 Z" style="fill:none;stroke:#000000;stroke-width:1;stroke-linecap:square;stroke-miterlimit:3;"/><path d="M 481 328.5 L 454 328.5 C 452.896 328.5 452 329.396 452 330.5 L 452 338.5 C 452 339.604 452.896 340.5 454 340.5 L 481 340.5 C 482.104 340.5 483 339.604 483 338.5 L 483 330.5 C 483 329.396 482.104 328.5 481 328.5 Z" style="fill:none;stroke:#000000;stroke-width:1;stroke-linecap:square;stroke-miterlimit:3;"/><path d="M 399 359.5 L 372 359.5 C 370.896 359.5 370 360.396 370 361.5 L 370 381.5 C 370 382.604 370.896 383.5 372 383.5 L 399 383.5 C 400.104 383.5 401 382.604 401 381.5 L 401 361.5 C 401 360.396 400.104 359.5 399 359.5 Z" style="fill:none;stroke:#000000;stroke-width:1;stroke-linecap:square;stroke-miterlimit:3;"/><path d="M 399 400.5 L 372 400.5 C 370.896 400.5 370 401.396 370 402.5 L 370 422.5 C 370 423.604 370.896 424.5 372 424.5 L 399 424.5 C 400.104 424.5 401 423.604 401 422.5 L 401 402.5 C 401 401.396 400.104 400.5 399 400.5 Z" style="fill:none;stroke:#000000;stroke-width:1;stroke-linecap:square;stroke-miterlimit:3;"/><path d="M 481 400.5 L 454 400.5 C 452.896 400.5 452 401.396 452 402.5 L 452 422.5 C 452 423.604 452.896 424.5 454 424.5 L 481 424.5 C 482.104 424.5 483 423.604 483 422.5 L 483 402.5 C 483 401.396 482.104 400.5 481 400.5 Z" style="fill:none;stroke:#000000;stroke-width:1;stroke-linecap:square;stroke-miterlimit:3;"/><g id="Group"><path d="M 505.5 334.5 L 503.5 334.5 C 502.396 334.5 501.5 335.396 501.5 336.5 L 501.5 417.5 C 501.5 418.604 502.396 419.5 503.5 419.5 L 505.5 419.5 C 506.604 419.5 507.5 418.604 507.5 417.5 L 507.5 336.5 C 507.5 335.396 506.604 334.5 505.5 334.5 Z" style="fill:none;stroke:#000000;stroke-width:1;stroke-linecap:square;stroke-miterlimit:3;"/><path d="M 515.5 367.5 L 493.5 367.5 C 492.396 367.5 491.5 368.396 491.5 369.5 L 491.5 385.5 C 491.5 386.604 492.396 387.5 493.5 387.5 L 515.5 387.5 C 516.604 387.5 517.5 386.604 517.5 385.5 L 517.5 369.5 C 517.5 368.396 516.604 367.5 515.5 367.5 Z" style="stroke:none;fill:#EBEBEB;stroke-linecap:square;stroke-miterlimit:3;"/><path d="M 515.5 367.5 L 493.5 367.5 C 492.396 367.5 491.5 368.396 491.5 369.5 L 491.5 385.5 C 491.5 386.604 492.396 387.5 493.5 387.5 L 515.5 387.5 C 516.604 387.5 517.5 386.604 517.5 385.5 L 517.5 369.5 C 517.5 368.396 516.604 367.5 515.5 367.5 Z" style="fill:none;stroke:#000000;stroke-width:1;stroke-linecap:square;stroke-miterlimit:3;"/></g><path d=" M 523.5 227.167 C 523.5 185.497 489.67 151.667 448 151.667 C 406.33 151.667 372.5 185.497 372.5 227.167 C 372.5 268.836 406.33 302.667 448 302.667 C 489.67 302.667 523.5 268.836 523.5 227.167 Z " fill="rgb(235,235,235)" vector-effect="non-scaling-stroke" stroke-width="1" stroke="rgb(0,0,0)" stroke-linejoin="miter" stroke-linecap="square" stroke-miterlimit="3"/><g id="Group"><rect x="317" y="306" width="6" height="85" transform="matrix(1,0,0,1,0,0)" fill="none" vector-effect="non-scaling-stroke" stroke-width="1" stroke="rgb(0,0,0)" stroke-linejoin="miter" stroke-linecap="square" stroke-miterlimit="3"/><rect x="302" y="339" width="34" height="20" transform="matrix(1,0,0,1,0,0)" fill="rgb(235,235,235)" vector-effect="non-scaling-stroke" stroke-width="1" stroke="rgb(0,0,0)" stroke-linejoin="miter" stroke-linecap="square" stroke-miterlimit="3"/></g><g id="Group"><g id="Group"><path d=" M 330 153.5 C 330 148.533 325.967 144.5 321 144.5 C 316.033 144.5 312 148.533 312 153.5 C 312 158.467 316.033 162.5 321 162.5 C 325.967 162.5 330 158.467 330 153.5 Z " fill="none" vector-effect="non-scaling-stroke" stroke-width="1" stroke="rgb(0,0,0)" stroke-linejoin="miter" stroke-linecap="square" stroke-miterlimit="3"/><line x1="321" y1="153.5" x2="321" y2="144.5" vector-effect="non-scaling-stroke" stroke-width="1" stroke="rgb(0,0,0)" stroke-linejoin="miter" stroke-linecap="square" stroke-miterlimit="3"/></g><g id="Group"><path d=" M 330 194.833 C 330 189.866 325.967 185.833 321 185.833 C 316.033 185.833 312 189.866 312 194.833 C 312 199.801 316.033 203.833 321 203.833 C 325.967 203.833 330 199.801 330 194.833 Z " fill="none" vector-effect="non-scaling-stroke" stroke-width="1" stroke="rgb(0,0,0)" stroke-linejoin="miter" stroke-linecap="square" stroke-miterlimit="3"/><line x1="321" y1="194.833" x2="321" y2="185.833" vector-effect="non-scaling-stroke" stroke-width="1" stroke="rgb(0,0,0)" stroke-linejoin="miter" stroke-linecap="square" stroke-miterlimit="3"/></g><g id="Group"><path d=" M 330 236.167 C 330 231.199 325.967 227.167 321 227.167 C 316.033 227.167 312 231.199 312 236.167 C 312 241.134 316.033 245.167 321 245.167 C 325.967 245.167 330 241.134 330 236.167 Z " fill="none" vector-effect="non-scaling-stroke" stroke-width="1" stroke="rgb(0,0,0)" stroke-linejoin="miter" stroke-linecap="square" stroke-miterlimit="3"/><line x1="321" y1="236.167" x2="321" y2="227.167" vector-effect="non-scaling-stroke" stroke-width="1" stroke="rgb(0,0,0)" stroke-linejoin="miter" stroke-linecap="square" stroke-miterlimit="3"/></g><g id="Group"><path d=" M 330 277.5 C 330 272.533 325.967 268.5 321 268.5 C 316.033 268.5 312 272.533 312 277.5 C 312 282.467 316.033 286.5 321 286.5 C 325.967 286.5 330 282.467 330 277.5 Z " fill="none" vector-effect="non-scaling-stroke" stroke-width="1" stroke="rgb(0,0,0)" stroke-linejoin="miter" stroke-linecap="square" stroke-miterlimit="3"/><line x1="321" y1="277.5" x2="321" y2="268.5" vector-effect="non-scaling-stroke" stroke-width="1" stroke="rgb(0,0,0)" stroke-linejoin="miter" stroke-linecap="square" stroke-miterlimit="3"/></g></g><g id="padmode led"><rect x="467" y="345.496" width="12" height="6" transform="matrix(1,0,0,1,0,0)" fill="rgb(162,162,162)"/><rect x="467" y="355.496" width="12" height="6" transform="matrix(1,0,0,1,0,0)" fill="rgb(162,162,162)"/><rect x="467" y="365.496" width="12" height="6" transform="matrix(1,0,0,1,0,0)" fill="rgb(162,162,162)"/><rect x="467" y="375.496" width="12" height="6" transform="matrix(1,0,0,1,0,0)" fill="rgb(162,162,162)"/></g></g><g id="center"><g id="CROSSFADER"><rect x="267.5" y="372" width="6" height="85" transform="matrix(0,-1,1,0,-144,685)" fill="none" vector-effect="non-scaling-stroke" stroke-width="1" stroke="rgb(0,0,0)" stroke-linejoin="miter" stroke-linecap="square" stroke-miterlimit="3"/><rect x="256" y="404.5" width="29" height="20" transform="matrix(0,-1,1,0,-144,685)" fill="rgb(235,235,235)" vector-effect="non-scaling-stroke" stroke-width="1" stroke="rgb(0,0,0)" stroke-linejoin="miter" stroke-linecap="square" stroke-miterlimit="3"/></g><path d=" M 253 157.5 C 253 147.841 260.841 140 270.5 140 C 280.159 140 288 147.841 288 157.5 C 288 167.159 280.159 175 270.5 175 C 260.841 175 253 167.159 253 157.5 Z " fill="none" vector-effect="non-scaling-stroke" stroke-width="1" stroke="rgb(0,0,0)" stroke-linejoin="miter" stroke-linecap="butt" stroke-miterlimit="3"/><g id="Group"><path d=" M 251 197 C 251 193.137 254.137 190 258 190 C 261.863 190 265 193.137 265 197 C 265 200.863 261.863 204 258 204 C 254.137 204 251 200.863 251 197 Z " fill="none" vector-effect="non-scaling-stroke" stroke-width="1" stroke="rgb(0,0,0)" stroke-linejoin="miter" stroke-linecap="butt" stroke-miterlimit="3"/><path d=" M 276 197 C 276 193.137 279.137 190 283 190 C 286.863 190 290 193.137 290 197 C 290 200.863 286.863 204 283 204 C 279.137 204 276 200.863 276 197 Z " fill="none" vector-effect="non-scaling-stroke" stroke-width="1" stroke="rgb(0,0,0)" stroke-linejoin="miter" stroke-linecap="butt" stroke-miterlimit="3"/></g><path d=" M 262.5 237 C 262.5 232.585 266.085 229 270.5 229 C 274.915 229 278.5 232.585 278.5 237 C 278.5 241.415 274.915 245 270.5 245 C 266.085 245 262.5 241.415 262.5 237 Z " fill="none" vector-effect="non-scaling-stroke" stroke-width="1" stroke="rgb(0,0,0)" stroke-linejoin="miter" stroke-linecap="butt" stroke-miterlimit="3"/><g id="Group"><path d=" M 245.032 275.921 C 245.032 270.875 249.129 266.779 254.175 266.779 C 259.221 266.779 263.318 270.875 263.318 275.921 C 263.318 280.968 259.221 285.064 254.175 285.064 C 249.129 285.064 245.032 280.968 245.032 275.921 Z " fill="none" vector-effect="non-scaling-stroke" stroke-width="1" stroke="rgb(0,0,0)" stroke-linejoin="miter" stroke-linecap="butt" stroke-miterlimit="3"/><path d=" M 279.668 275.921 C 279.668 270.871 283.768 266.771 288.818 266.771 C 293.868 266.771 297.968 270.871 297.968 275.921 C 297.968 280.971 293.868 285.071 288.818 285.071 C 283.768 285.071 279.668 280.971 279.668 275.921 Z " fill="none" vector-effect="non-scaling-stroke" stroke-width="1" stroke="rgb(0,0,0)" stroke-linejoin="miter" stroke-linecap="butt" stroke-miterlimit="3"/></g><path d=" M 261.35 318.15 C 261.35 313.1 265.45 309 270.5 309 C 275.55 309 279.65 313.1 279.65 318.15 C 279.65 323.2 275.55 327.3 270.5 327.3 C 265.45 327.3 261.35 323.2 261.35 318.15 Z " fill="none" vector-effect="non-scaling-stroke" stroke-width="1" stroke="rgb(0,0,0)" stroke-linejoin="miter" stroke-linecap="butt" stroke-miterlimit="3"/><g transform="matrix(1,0,0,1,254,188)"><text transform="matrix(1,0,0,1,0,12.826)" style="font-family:&quot;Open Sans&quot;;font-weight:600;font-size:12px;font-style:normal;fill:#000000;stroke:none;">1</text></g><g transform="matrix(1,0,0,1,279,188)"><text transform="matrix(1,0,0,1,0,12.826)" style="font-family:&quot;Open Sans&quot;;font-weight:600;font-size:12px;font-style:normal;fill:#000000;stroke:none;">2</text></g></g><line x1="185" y1="128" x2="185" y2="429" vector-effect="non-scaling-stroke" stroke-width="1" stroke="rgb(0,0,0)" stroke-linejoin="miter" stroke-linecap="square" stroke-miterlimit="3"/><line x1="361" y1="125" x2="361" y2="426" vector-effect="non-scaling-stroke" stroke-width="1" stroke="rgb(0,0,0)" stroke-linejoin="miter" stroke-linecap="square" stroke-miterlimit="3"/><line x1="270.5" y1="317" x2="270.5" y2="309" vector-effect="non-scaling-stroke" stroke-width="1" stroke="rgb(0,0,0)" stroke-linejoin="miter" stroke-linecap="square" stroke-miterlimit="3"/><line x1="270.5" y1="237" x2="270.5" y2="229" vector-effect="non-scaling-stroke" stroke-width="1" stroke="rgb(0,0,0)" stroke-linejoin="miter" stroke-linecap="square" stroke-miterlimit="3"/><g id="KNOPPENTEKST"><g id="Group"><g transform="matrix(1,0,0,1,376,405)"><text transform="matrix(1,0,0,1,0,10.688)" style="font-family:&quot;Open Sans Condensed&quot;;font-weight:700;font-size:10px;font-style:normal;fill:#000000;stroke:none;">SYNC</text></g><g transform="matrix(1,0,0,1,419,405)"><text transform="matrix(1,0,0,1,0,10.688)" style="font-family:&quot;Open Sans Condensed&quot;;font-weight:700;font-size:10px;font-style:normal;fill:#000000;stroke:none;">CUE</text></g></g><g id="Group"><g transform="matrix(1,0,0,1,34,406)"><text transform="matrix(1,0,0,1,0,10.688)" style="font-family:&quot;Open Sans Condensed&quot;;font-weight:700;font-size:10px;font-style:normal;fill:#000000;stroke:none;">SYNC</text></g><g transform="matrix(1,0,0,1,77,406)"><text transform="matrix(1,0,0,1,0,10.688)" style="font-family:&quot;Open Sans Condensed&quot;;font-weight:700;font-size:10px;font-style:normal;fill:#000000;stroke:none;">CUE</text></g></g><g id="Group"><g transform="matrix(1,0,0,1,31,328)"><text transform="matrix(1,0,0,1,0,10.688)" style="font-family:&quot;Open Sans Condensed&quot;;font-weight:700;font-size:10px;font-style:normal;fill:#000000;stroke:none;">1</text></g><g transform="matrix(1,0,0,1,31,359)"><text transform="matrix(1,0,0,1,0,10.688)" style="font-family:&quot;Open Sans Condensed&quot;;font-weight:700;font-size:10px;font-style:normal;fill:#000000;stroke:none;">3</text></g><g transform="matrix(1,0,0,1,72.5,328)"><text transform="matrix(1,0,0,1,0,10.688)" style="font-family:&quot;Open Sans Condensed&quot;;font-weight:700;font-size:10px;font-style:normal;fill:#000000;stroke:none;">2</text></g><g transform="matrix(1,0,0,1,72.5,359)"><text transform="matrix(1,0,0,1,0,10.688)" style="font-family:&quot;Open Sans Condensed&quot;;font-weight:700;font-size:10px;font-style:normal;fill:#000000;stroke:none;">4</text></g></g><g id="Group"><g transform="matrix(1,0,0,1,372,331)"><text transform="matrix(1,0,0,1,0,10.688)" style="font-family:&quot;Open Sans Condensed&quot;;font-weight:700;font-size:10px;font-style:normal;fill:#000000;stroke:none;">1</text></g><g transform="matrix(1,0,0,1,372,362)"><text transform="matrix(1,0,0,1,0,10.688)" style="font-family:&quot;Open Sans Condensed&quot;;font-weight:700;font-size:10px;font-style:normal;fill:#000000;stroke:none;">3</text></g><g transform="matrix(1,0,0,1,413.5,331)"><text transform="matrix(1,0,0,1,0,10.688)" style="font-family:&quot;Open Sans Condensed&quot;;font-weight:700;font-size:10px;font-style:normal;fill:#000000;stroke:none;">2</text></g><g transform="matrix(1,0,0,1,413.5,362)"><text transform="matrix(1,0,0,1,0,10.688)" style="font-family:&quot;Open Sans Condensed&quot;;font-weight:700;font-size:10px;font-style:normal;fill:#000000;stroke:none;">4</text></g></g><g id="PLAY PAYZE"><polygon points="115,417.93,115,407.689,127,412.809" fill="rgb(139,139,139)"/><rect x="135" y="406.952" width="2" height="11.714" transform="matrix(1,0,0,1,0,0)" fill="rgb(139,139,139)"/><rect x="131" y="406.952" width="2" height="11.714" transform="matrix(1,0,0,1,0,0)" fill="rgb(139,139,139)"/></g><g id="PLAY PAYZE"><polygon points="457,417.93,457,407.689,469,412.809" fill="rgb(139,139,139)"/><rect x="477" y="406.952" width="2" height="11.714" transform="matrix(1,0,0,1,0,0)" fill="rgb(139,139,139)"/><rect x="473" y="406.952" width="2" height="11.714" transform="matrix(1,0,0,1,0,0)" fill="rgb(139,139,139)"/></g></g><g id="indicators"><g transform="matrix(1,0,0,1,267.5,144.5)"><text transform="matrix(1,0,0,1,0,18.096)" style="font-family:&quot;Numans&quot;;font-weight:400;font-size:20px;font-style:normal;fill:#ff0000;stroke:none;">1</text></g><g transform="matrix(1,0,0,1,264.854,186)"><text transform="matrix(1,0,0,1,0,18.096)" style="font-family:&quot;Numans&quot;;font-weight:400;font-size:20px;font-style:normal;fill:#ff0000;stroke:none;">2</text></g><g transform="matrix(1,0,0,1,268,234)"><text transform="matrix(1,0,0,1,0,18.096)" style="font-family:&quot;Numans&quot;;font-weight:400;font-size:20px;font-style:normal;fill:#ff0000;stroke:none;">5</text></g><g transform="matrix(1,0,0,1,200,192)"><text transform="matrix(1,0,0,1,0,18.096)" style="font-family:&quot;Numans&quot;;font-weight:400;font-size:20px;font-style:normal;fill:#ff0000;stroke:none;">7</text></g><g transform="matrix(1,0,0,1,333,192)"><text transform="matrix(1,0,0,1,0,18.096)" style="font-family:&quot;Numans&quot;;font-weight:400;font-size:20px;font-style:normal;fill:#ff0000;stroke:none;">7</text></g><g transform="matrix(1,0,0,1,202,225.252)"><text transform="matrix(1,0,0,1,0,18.096)" style="font-family:&quot;Numans&quot;;font-weight:400;font-size:20px;font-style:normal;fill:#ff0000;stroke:none;">8</text></g><g transform="matrix(1,0,0,1,335,225.252)"><text transform="matrix(1,0,0,1,0,18.096)" style="font-family:&quot;Numans&quot;;font-weight:400;font-size:20px;font-style:normal;fill:#ff0000;stroke:none;">8</text></g><g transform="matrix(1,0,0,1,261.5,266.752)"><text transform="matrix(1,0,0,1,0,18.096)" style="font-family:&quot;Numans&quot;;font-weight:400;font-size:20px;font-style:normal;fill:#ff0000;stroke:none;">11</text></g><g transform="matrix(1,0,0,1,193,266.752)"><text transform="matrix(1,0,0,1,0,18.096)" style="font-family:&quot;Numans&quot;;font-weight:400;font-size:20px;font-style:normal;fill:#ff0000;stroke:none;">13</text></g><g transform="matrix(1,0,0,1,333,266.752)"><text transform="matrix(1,0,0,1,0,18.096)" style="font-family:&quot;Numans&quot;;font-weight:400;font-size:20px;font-style:normal;fill:#ff0000;stroke:none;">13</text></g><g transform="matrix(1,0,0,1,86,210.504)"><text transform="matrix(1,0,0,1,0,18.096)" style="font-family:&quot;Numans&quot;;font-weight:400;font-size:20px;font-style:normal;fill:#ff0000;stroke:none;">12</text></g><g transform="matrix(1,0,0,1,438.5,210.504)"><text transform="matrix(1,0,0,1,0,18.096)" style="font-family:&quot;Numans&quot;;font-weight:400;font-size:20px;font-style:normal;fill:#ff0000;stroke:none;">12</text></g><g transform="matrix(1,0,0,1,47,389.496)"><text transform="matrix(1,0,0,1,0,18.096)" style="font-family:&quot;Numans&quot;;font-weight:400;font-size:20px;font-style:normal;fill:#ff0000;stroke:none;">15</text></g><g transform="matrix(1,0,0,1,384,389.496)"><text transform="matrix(1,0,0,1,0,18.096)" style="font-family:&quot;Numans&quot;;font-weight:400;font-size:20px;font-style:normal;fill:#ff0000;stroke:none;">15</text></g><g transform="matrix(1,0,0,1,70,393.756)"><text transform="matrix(1,0,0,1,0,18.096)" style="font-family:&quot;Numans&quot;;font-weight:400;font-size:20px;font-style:normal;fill:#ff0000;stroke:none;">16</text></g><g transform="matrix(1,0,0,1,417,389.496)"><text transform="matrix(1,0,0,1,0,18.096)" style="font-family:&quot;Numans&quot;;font-weight:400;font-size:20px;font-style:normal;fill:#ff0000;stroke:none;">16</text></g><g transform="matrix(1,0,0,1,108,393.756)"><text transform="matrix(1,0,0,1,0,18.096)" style="font-family:&quot;Numans&quot;;font-weight:400;font-size:20px;font-style:normal;fill:#ff0000;stroke:none;">17</text></g><g transform="matrix(1,0,0,1,456.75,389.496)"><text transform="matrix(1,0,0,1,0,18.096)" style="font-family:&quot;Numans&quot;;font-weight:400;font-size:20px;font-style:normal;fill:#ff0000;stroke:none;">17</text></g><g transform="matrix(1,0,0,1,49,342.504)"><text transform="matrix(1,0,0,1,0,18.096)" style="font-family:&quot;Numans&quot;;font-weight:400;font-size:20px;font-style:normal;fill:#ff0000;stroke:none;">18</text></g><g transform="matrix(1,0,0,1,390,345.496)"><text transform="matrix(1,0,0,1,0,18.096)" style="font-family:&quot;Numans&quot;;font-weight:400;font-size:20px;font-style:normal;fill:#ff0000;stroke:none;">18</text></g><g transform="matrix(1,0,0,1,123,322)"><text transform="matrix(1,0,0,1,0,18.096)" style="font-family:&quot;Numans&quot;;font-weight:400;font-size:20px;font-style:normal;fill:#ff0000;stroke:none;">19</text></g><g transform="matrix(1,0,0,1,467.5,319.008)"><text transform="matrix(1,0,0,1,0,18.096)" style="font-family:&quot;Numans&quot;;font-weight:400;font-size:20px;font-style:normal;fill:#ff0000;stroke:none;">19</text></g><g transform="matrix(1,0,0,1,109,351.496)"><text transform="matrix(1,0,0,1,0,18.096)" style="font-family:&quot;Numans&quot;;font-weight:400;font-size:20px;font-style:normal;fill:#ff0000;stroke:none;">20</text></g><g transform="matrix(1,0,0,1,450,354.252)"><text transform="matrix(1,0,0,1,0,18.096)" style="font-family:&quot;Numans&quot;;font-weight:400;font-size:20px;font-style:normal;fill:#ff0000;stroke:none;">20</text></g><g transform="matrix(1,0,0,1,157.5,366)"><text transform="matrix(1,0,0,1,0,18.096)" style="font-family:&quot;Numans&quot;;font-weight:400;font-size:20px;font-style:normal;fill:#ff0000;stroke:none;">14</text></g><g transform="matrix(1,0,0,1,494.5,366)"><text transform="matrix(1,0,0,1,0,18.096)" style="font-family:&quot;Numans&quot;;font-weight:400;font-size:20px;font-style:normal;fill:#ff0000;stroke:none;">14</text></g><g transform="matrix(1,0,0,1,200,144.5)"><text transform="matrix(1,0,0,1,0,18.096)" style="font-family:&quot;Numans&quot;;font-weight:400;font-size:20px;font-style:normal;fill:#ff0000;stroke:none;">6</text></g><g transform="matrix(1,0,0,1,333,144.5)"><text transform="matrix(1,0,0,1,0,18.096)" style="font-family:&quot;Numans&quot;;font-weight:400;font-size:20px;font-style:normal;fill:#ff0000;stroke:none;">6</text></g><g transform="matrix(1,0,0,1,138,62)"><text transform="matrix(1,0,0,1,0,18.096)" style="font-family:&quot;Numans&quot;;font-weight:400;font-size:20px;font-style:normal;fill:#ff0000;stroke:none;">5</text></g><g transform="matrix(1,0,0,1,260.5,405.504)"><text transform="matrix(1,0,0,1,0,18.096)" style="font-family:&quot;Numans&quot;;font-weight:400;font-size:20px;font-style:normal;fill:#ff0000;stroke:none;">10</text></g><g transform="matrix(1,0,0,1,264.354,327.476)"><text transform="matrix(1,0,0,1,0,18.096)" style="font-family:&quot;Numans&quot;;font-weight:400;font-size:20px;font-style:normal;fill:#ff0000;stroke:none;">3</text></g><g transform="matrix(1,0,0,1,218,339.748)"><text transform="matrix(1,0,0,1,0,18.096)" style="font-family:&quot;Numans&quot;;font-weight:400;font-size:20px;font-style:normal;fill:#ff0000;stroke:none;">9</text></g><g transform="matrix(1,0,0,1,313,339.748)"><text transform="matrix(1,0,0,1,0,18.096)" style="font-family:&quot;Numans&quot;;font-weight:400;font-size:20px;font-style:normal;fill:#ff0000;stroke:none;">9</text></g></g></svg>